<svg xmlns="http://www.w3.org/2000/svg" fill="none" viewBox="0 0 221 61" class="w-20 h-5 lg:w-32 lg:h-8" role="img" aria-label="World of Women Logo" style="fill: none !important;"><path fill="#fbfdfd" d="M90.957 6.66c6.537-5.314 15.58-6.615 23.861-5.953 11.196.722 19.412 6.67 23.523 15.4l-1.167-5.253C135.536 5.793 139.217.57 144.422.57h9.097c3.454 0 6.323 2.737 6.564 6.27l1.56 27.816c.048.884 1.276 1.005 1.487.146l7.122-28.721c.99-3.278 3.949-5.51 7.293-5.51h2.695c3.349 0 6.303 2.232 7.293 5.51l7.122 28.721c.216.86 1.437.736 1.488-.146l1.559-27.817c.246-3.53 3.111-6.27 6.565-6.27h9.092c5.21.001 8.884 5.221 7.247 10.285l-8.16 36.722a27.078 27.078 0 0 1-1.052 3.65c-3.279 8.79-8.73 9.298-14.363 9.298-9.905 0-15.253-6.636-16.291-14.712l-1.848-14.36-1.85 14.36c-1.042 8.081-6.391 14.712-16.291 14.712-5.635 0-11.081-.508-14.362-9.299-.445-1.188-.777-2.411-1.053-3.65l-4.041-18.178c.004.268.007.537.006.807l.003-.003v.05c.193 20.524-14.053 31.716-33.611 30.152-17.735-1.087-27.617-14.154-27.033-31.108l-4.062 18.28a27.17 27.17 0 0 1-1.053 3.65c-3.278 8.791-8.73 9.299-14.362 9.299-9.905 0-15.254-6.636-16.291-14.712l-1.849-14.36-1.85 14.36c-1.042 8.081-6.39 14.712-16.29 14.712-5.635 0-11.082-.508-14.363-9.299-.444-1.188-.776-2.411-1.053-3.65l-8.162-36.72C-.312 5.793 3.368.57 8.573.57h9.097c3.454 0 6.323 2.737 6.564 6.27l1.56 27.816c.05.884 1.276 1.005 1.487.146l7.122-28.721c.99-3.278 3.95-5.51 7.293-5.51h2.696c3.348 0 6.303 2.232 7.293 5.51l7.122 28.721c.216.86 1.44.736 1.487-.146l1.56-27.817C62.1 3.31 64.964.57 68.418.57h9.095c5.21.001 8.884 5.221 7.247 10.285l-1.195 5.375c1.707-3.7 4.175-7.008 7.392-9.57Zm20.022 12.089c-5.072-.089-9.76 2.436-11.17 7.54-.725 2.385-.72 5.519-.08 7.95 1.259 5.347 5.957 8.114 11.225 8.098h.05c5.391.043 10.142-2.928 11.287-8.351.59-2.426.561-5.504-.185-7.84-1.445-5.007-6.108-7.486-11.127-7.397Z" style="fill: rgb(251, 253, 253) !important;"/></svg>